# WaveFront *.obj file (generated by Autodesk ATF)

mtllib 0ac43dca-2224-4ee0-b50e-6a7c3a547a21.mtl

g Body1

v 4.822128 7.618315 -9.000000
v 4.822128 -7.381685 -9.000000
v 9.822128 -7.381685 -9.000000
v 9.822128 -12.381686 -9.000000
v -10.177872 -12.381686 -9.000000
v -10.177872 -7.381685 -9.000000
v -5.188699 -7.381685 -9.000000
v -5.188699 7.618315 -9.000000
v -10.177872 7.618315 -9.000000
v -10.177872 12.618315 -9.000000
v 9.822128 12.618315 -9.000000
v 9.822128 7.618315 -9.000000
v 4.822128 -7.381685 9.000000
v 9.822128 -7.381685 9.000000
v 9.822128 -12.381686 9.000000
v -10.177872 -12.381686 9.000000
v -10.177872 -7.381685 9.000000
v -5.188699 -7.381685 9.000000
v -5.188699 7.618315 9.000000
v -10.177872 7.618315 9.000000
v -10.177872 12.618315 9.000000
v 9.822128 12.618315 9.000000
v 9.822128 7.618315 9.000000
v 4.822128 7.618315 9.000000
vt -0.500000 -0.750000 0.000000
vt 0.501083 -0.750000 0.000000
vt -0.500000 0.750000 0.000000
vt 0.501083 0.750000 0.000000
vt 1.000000 1.250000 0.000000
vt 1.000000 0.750000 0.000000
vt -1.000000 -0.750000 0.000000
vt -1.000000 -1.250000 0.000000
vt 1.000000 -1.250000 0.000000
vt 1.000000 -0.750000 0.000000
vt -1.000000 1.250000 0.000000
vt -1.000000 0.750000 0.000000
vt 0.500000 0.900000 0.000000
vt -0.000000 0.900000 0.000000
vt 0.500000 -0.900000 0.000000
vt 0.000000 -0.900000 0.000000
vt 0.500000 0.900000 0.000000
vt 0.000000 0.900000 0.000000
vt 0.500000 -0.900000 0.000000
vt 0.000000 -0.900000 0.000000
vt 2.000000 0.900000 0.000000
vt 0.000000 0.900000 0.000000
vt 2.000000 -0.900000 0.000000
vt 0.000000 -0.900000 0.000000
vt 0.500000 0.900000 0.000000
vt -0.000000 0.900000 0.000000
vt 0.500000 -0.900000 0.000000
vt 0.000000 -0.900000 0.000000
vt 0.498917 0.900000 0.000000
vt -0.000000 0.900000 0.000000
vt 0.498917 -0.900000 0.000000
vt 0.000000 -0.900000 0.000000
vt 1.500000 0.900000 0.000000
vt -0.000000 0.900000 0.000000
vt 1.500000 -0.900000 0.000000
vt 0.000000 -0.900000 0.000000
vt 0.498917 0.900000 0.000000
vt 0.000000 0.900000 0.000000
vt 0.498917 -0.900000 0.000000
vt 0.000000 -0.900000 0.000000
vt 0.500000 0.900000 0.000000
vt -0.000000 0.900000 0.000000
vt 0.500000 -0.900000 0.000000
vt 0.000000 -0.900000 0.000000
vt 2.000000 0.900000 0.000000
vt -0.000000 0.900000 0.000000
vt 2.000000 -0.900000 0.000000
vt 0.000000 -0.900000 0.000000
vt 0.500000 0.900000 0.000000
vt 0.000000 0.900000 0.000000
vt 0.500000 -0.900000 0.000000
vt 0.000000 -0.900000 0.000000
vt 0.500000 0.900000 0.000000
vt 0.000000 0.900000 0.000000
vt 0.500000 -0.900000 0.000000
vt 0.000000 -0.900000 0.000000
vt 1.500000 0.900000 0.000000
vt 0.000000 0.900000 0.000000
vt 1.500000 -0.900000 0.000000
vt 0.000000 -0.900000 0.000000
vt 0.500000 0.750000 0.000000
vt -0.501083 0.750000 0.000000
vt 0.500000 -0.750000 0.000000
vt -0.501083 -0.750000 0.000000
vt -1.000000 -1.250000 0.000000
vt -1.000000 -0.750000 0.000000
vt 1.000000 0.750000 0.000000
vt 1.000000 1.250000 0.000000
vt -1.000000 1.250000 0.000000
vt -1.000000 0.750000 0.000000
vt 1.000000 -1.250000 0.000000
vt 1.000000 -0.750000 0.000000
vn 0.000000 0.000000 -0.100000
vn 0.000000 0.000000 -0.100000
vn 0.000000 0.000000 -0.100000
vn 0.000000 0.000000 -0.100000
vn 0.000000 0.000000 -0.100000
vn 0.000000 0.000000 -0.100000
vn 0.000000 0.000000 -0.100000
vn 0.000000 0.000000 -0.100000
vn 0.000000 0.000000 -0.100000
vn 0.000000 0.000000 -0.100000
vn 0.000000 0.000000 -0.100000
vn 0.000000 0.000000 -0.100000
vn 0.000000 0.100000 0.000000
vn 0.000000 0.100000 0.000000
vn 0.000000 0.100000 0.000000
vn 0.000000 0.100000 0.000000
vn 0.100000 0.000000 0.000000
vn 0.100000 0.000000 0.000000
vn 0.100000 0.000000 0.000000
vn 0.100000 0.000000 0.000000
vn 0.000000 -0.100000 0.000000
vn 0.000000 -0.100000 0.000000
vn 0.000000 -0.100000 0.000000
vn 0.000000 -0.100000 0.000000
vn -0.100000 0.000000 0.000000
vn -0.100000 0.000000 0.000000
vn -0.100000 0.000000 0.000000
vn -0.100000 0.000000 0.000000
vn 0.000000 0.100000 0.000000
vn 0.000000 0.100000 0.000000
vn 0.000000 0.100000 0.000000
vn 0.000000 0.100000 0.000000
vn -0.100000 0.000000 0.000000
vn -0.100000 0.000000 0.000000
vn -0.100000 0.000000 0.000000
vn -0.100000 0.000000 0.000000
vn 0.000000 -0.100000 0.000000
vn 0.000000 -0.100000 0.000000
vn 0.000000 -0.100000 0.000000
vn 0.000000 -0.100000 0.000000
vn -0.100000 0.000000 0.000000
vn -0.100000 0.000000 0.000000
vn -0.100000 0.000000 0.000000
vn -0.100000 0.000000 0.000000
vn 0.000000 0.100000 0.000000
vn 0.000000 0.100000 0.000000
vn 0.000000 0.100000 0.000000
vn 0.000000 0.100000 0.000000
vn 0.100000 0.000000 0.000000
vn 0.100000 0.000000 0.000000
vn 0.100000 0.000000 0.000000
vn 0.100000 0.000000 0.000000
vn 0.000000 -0.100000 0.000000
vn 0.000000 -0.100000 0.000000
vn 0.000000 -0.100000 0.000000
vn 0.000000 -0.100000 0.000000
vn 0.100000 0.000000 0.000000
vn 0.100000 0.000000 0.000000
vn 0.100000 0.000000 0.000000
vn 0.100000 0.000000 0.000000
vn 0.000000 0.000000 0.100000
vn 0.000000 0.000000 0.100000
vn 0.000000 0.000000 0.100000
vn 0.000000 0.000000 0.100000
vn 0.000000 0.000000 0.100000
vn 0.000000 0.000000 0.100000
vn 0.000000 0.000000 0.100000
vn 0.000000 0.000000 0.100000
vn 0.000000 0.000000 0.100000
vn 0.000000 0.000000 0.100000
vn 0.000000 0.000000 0.100000
vn 0.000000 0.000000 0.100000
usemtl Steel_-_Satin
f 2/1/1 7/2/2 1/3/3
f 1/3/3 7/2/2 8/4/4
f 1/3/3 8/4/4 10/5/5
f 10/5/5 8/4/4 9/6/6
f 3/7/7 4/8/8 2/1/1
f 2/1/1 4/8/8 5/9/9
f 2/1/1 5/9/9 7/2/2
f 7/2/2 5/9/9 6/10/10
f 10/5/5 11/11/11 1/3/3
f 1/3/3 11/11/11 12/12/12
f 13/13/13 14/14/14 2/15/15
f 2/15/15 14/14/14 3/16/16
f 14/17/17 15/18/18 3/19/19
f 3/19/19 15/18/18 4/20/20
f 15/21/21 16/22/22 4/23/23
f 4/23/23 16/22/22 5/24/24
f 16/25/25 17/26/26 5/27/27
f 5/27/27 17/26/26 6/28/28
f 17/29/29 18/30/30 6/31/31
f 6/31/31 18/30/30 7/32/32
f 18/33/33 19/34/34 7/35/35
f 7/35/35 19/34/34 8/36/36
f 19/37/37 20/38/38 8/39/39
f 8/39/39 20/38/38 9/40/40
f 20/41/41 21/42/42 9/43/43
f 9/43/43 21/42/42 10/44/44
f 21/45/45 22/46/46 10/47/47
f 10/47/47 22/46/46 11/48/48
f 22/49/49 23/50/50 11/51/51
f 11/51/51 23/50/50 12/52/52
f 23/53/53 24/54/54 12/55/55
f 12/55/55 24/54/54 1/56/56
f 24/57/57 13/58/58 1/59/59
f 1/59/59 13/58/58 2/60/60
f 24/61/61 19/62/62 13/63/63
f 13/63/63 19/62/62 18/64/64
f 13/63/63 18/64/64 16/65/65
f 16/65/65 18/64/64 17/66/66
f 23/67/67 22/68/68 24/61/61
f 24/61/61 22/68/68 21/69/69
f 24/61/61 21/69/69 19/62/62
f 19/62/62 21/69/69 20/70/70
f 16/65/65 15/71/71 13/63/63
f 13/63/63 15/71/71 14/72/72
# 24 vertices
# 72 texture params
# 72 normals
# 44 facets

# 1 groups
